<svg id="visual" viewBox="0 0 3840 2160" width="3840" height="2160" xmlns="http://www.w3.org/2000/svg" xmlns:xlink="http://www.w3.org/1999/xlink" version="1.1"><rect x="0" y="0" width="3840" height="2160" fill="#ffffff"></rect><defs><linearGradient id="grad1_0" x1="43.8%" y1="0%" x2="100%" y2="100%"><stop offset="14.444444444444446%" stop-color="#ffffff" stop-opacity="1"></stop><stop offset="85.55555555555554%" stop-color="#ffffff" stop-opacity="1"></stop></linearGradient></defs><defs><linearGradient id="grad2_0" x1="0%" y1="0%" x2="56.3%" y2="100%"><stop offset="14.444444444444446%" stop-color="#ffffff" stop-opacity="1"></stop><stop offset="85.55555555555554%" stop-color="#ffffff" stop-opacity="1"></stop></linearGradient></defs><g transform="translate(3840, 0)"><path d="M0 1728C-208.4 1721.1 -416.7 1714.1 -506.5 1558.8C-596.3 1403.5 -567.4 1099.7 -742.4 1021.8C-917.3 943.8 -1295.9 1091.6 -1398 1015.7C-1500 939.8 -1325.4 640.1 -1334.3 433.6C-1343.2 227 -1535.6 113.5 -1728 0L0 0Z" fill="#000000"></path></g><g transform="translate(0, 2160)"><path d="M0 -1728C173.6 -1629.7 347.1 -1531.3 460.1 -1416.1C573.1 -1300.9 625.5 -1168.8 820 -1128.6C1014.4 -1088.3 1350.8 -1139.9 1398 -1015.7C1445.1 -891.5 1203 -591.6 1209.7 -393.1C1216.5 -194.5 1472.3 -97.3 1728 0L0 0Z" fill="#000000"></path></g></svg>